<svg width="76" height="18" viewBox="0 0 76 18" fill="none" xmlns="http://www.w3.org/2000/svg">
<path d="M10.4 8.288C11.184 8.672 11.8 9.208 12.248 9.896C12.696 10.584 12.92 11.368 12.92 12.248C12.92 13.592 12.448 14.72 11.504 15.632C10.56 16.544 9.408 17 8.048 17H0.8V0.199999H7.52C8.848 0.199999 9.96 0.639999 10.856 1.52C11.768 2.4 12.224 3.488 12.224 4.784C12.224 6.288 11.616 7.456 10.4 8.288ZM7.52 2.288H3.032V7.424H7.52C8.224 7.424 8.816 7.176 9.296 6.68C9.776 6.184 10.016 5.576 10.016 4.856C10.016 4.152 9.768 3.552 9.272 3.056C8.792 2.544 8.208 2.288 7.52 2.288ZM3.032 14.912H8.048C8.8 14.912 9.432 14.648 9.944 14.12C10.456 13.592 10.712 12.944 10.712 12.176C10.712 11.424 10.448 10.784 9.92 10.256C9.424 9.728 8.8 9.464 8.048 9.464H3.032V14.912ZM18.7449 5H23.8569V17H21.7929V12.68H20.0409L16.6809 17H14.1369L17.6409 12.56C16.7289 12.336 15.9929 11.888 15.4329 11.216C14.8889 10.544 14.6169 9.76 14.6169 8.864C14.6169 7.76 15.0089 6.84 15.7929 6.104C16.5769 5.368 17.5609 5 18.7449 5ZM18.8169 10.808H21.7929V6.944H18.8169C18.2089 6.944 17.6969 7.128 17.2809 7.496C16.8809 7.848 16.6809 8.312 16.6809 8.888C16.6809 9.448 16.8809 9.912 17.2809 10.28C17.6969 10.632 18.2089 10.808 18.8169 10.808ZM33.5015 10.856C34.8295 11.416 35.4935 12.368 35.4935 13.712C35.4935 14.752 35.0855 15.616 34.2695 16.304C33.4535 16.976 32.3255 17.312 30.8855 17.312C28.4855 17.312 26.8775 16.352 26.0615 14.432L27.8135 13.4C28.2615 14.712 29.2935 15.368 30.9095 15.368C31.6935 15.368 32.3095 15.2 32.7575 14.864C33.2055 14.528 33.4295 14.08 33.4295 13.52C33.4295 13.04 33.2455 12.648 32.8775 12.344C32.5255 12.04 32.0455 11.888 31.4375 11.888H29.6855V9.992H30.9815C31.5895 9.992 32.0615 9.848 32.3975 9.56C32.7335 9.256 32.9015 8.848 32.9015 8.336C32.9015 7.808 32.7015 7.392 32.3015 7.088C31.9015 6.768 31.3655 6.608 30.6935 6.608C29.3495 6.608 28.4375 7.176 27.9575 8.312L26.2535 7.328C27.1015 5.568 28.5815 4.688 30.6935 4.688C31.9735 4.688 32.9975 5.024 33.7655 5.696C34.5495 6.352 34.9415 7.176 34.9415 8.168C34.9415 9.384 34.4615 10.28 33.5015 10.856ZM47.6919 7.064V5H49.7799V17H47.6919V14.936C46.6679 16.52 45.1559 17.312 43.1559 17.312C41.4599 17.312 40.0279 16.704 38.8599 15.488C37.6759 14.256 37.0839 12.76 37.0839 11C37.0839 9.256 37.6759 7.768 38.8599 6.536C40.0439 5.304 41.4759 4.688 43.1559 4.688C45.1559 4.688 46.6679 5.48 47.6919 7.064ZM43.4199 15.296C44.6359 15.296 45.6519 14.888 46.4679 14.072C47.2839 13.224 47.6919 12.2 47.6919 11C47.6919 9.784 47.2839 8.768 46.4679 7.952C45.6519 7.12 44.6359 6.704 43.4199 6.704C42.2199 6.704 41.2119 7.12 40.3959 7.952C39.5799 8.768 39.1719 9.784 39.1719 11C39.1719 12.2 39.5799 13.224 40.3959 14.072C41.2119 14.888 42.2199 15.296 43.4199 15.296ZM61.2474 9.992V5H63.3354V17H61.2474V11.984H55.0314V17H52.9434V5H55.0314V9.992H61.2474ZM68.6017 9.32H71.5777C72.7777 9.32 73.7697 9.68 74.5537 10.4C75.3537 11.104 75.7537 12.024 75.7537 13.16C75.7537 14.296 75.3537 15.224 74.5537 15.944C73.7537 16.648 72.7617 17 71.5777 17H66.5137V5H68.6017V9.32ZM68.6017 15.056H71.5777C72.1857 15.056 72.6897 14.88 73.0897 14.528C73.4897 14.176 73.6897 13.72 73.6897 13.16C73.6897 12.6 73.4817 12.144 73.0657 11.792C72.6657 11.424 72.1697 11.24 71.5777 11.24H68.6017V15.056Z" fill="#262626"/>
</svg>
